<svg xmlns="http://www.w3.org/2000/svg" xmlns:xlink="http://www.w3.org/1999/xlink" width="1550" height="980" viewBox="0 0 1550 980"><defs><style>.cls-1{stroke:#fff;stroke-miterlimit:10;opacity:0.5;fill:url(#linear-gradient);}.cls-1,.cls-5{isolation:isolate;}.cls-2{fill:none;}.cls-3{opacity:0.6;}.cls-4{fill:#fff;}.cls-5,.cls-7{fill:#fffdf8;}.cls-5{opacity:0.2;}.cls-6{opacity:0.2;filter:url(#AI_GaussianBlur_7);}</style><linearGradient id="linear-gradient" x1="1.58" y1="490.03" x2="1856.28" y2="490.03" gradientTransform="matrix(1, 0, 0, -1, 0, 980.03)" gradientUnits="userSpaceOnUse"><stop offset="0" stop-color="#542ed0"/><stop offset="1" stop-color="#db4bdb"/></linearGradient><filter id="AI_GaussianBlur_7" name="AI_GaussianBlur_7"><feGaussianBlur stdDeviation="7"/></filter></defs><g id="Layer_1" data-name="Layer 1"><path class="cls-1" d="M1466.85,897.75H83.15c-45.07,0-81.57-37.5-81.57-83.8V166.05c0-46.3,36.5-83.8,81.57-83.8h1383.7c45.07,0,81.57,37.5,81.57,83.8v647.8C1548.42,860.15,1511.92,897.75,1466.85,897.75Z"/><rect class="cls-2" x="183.52" y="227.05" width="421.3" height="247.3"/><rect class="cls-2" x="1257.02" y="158.55" width="291.4" height="708.7"/></g><g id="Layer_3" data-name="Layer 3"><g class="cls-3"><path class="cls-4" d="M985.09,592.3h-16V867.22H946.66V592.3h-16V524.13h54.41Z"/><path class="cls-4" d="M1033.89,867.22H990V524.13h43.47v67.71H1012.3v61.85h18.07v69.07H1012.3V798.6h21.59Z"/><path class="cls-4" d="M1092.77,867.22h-22.64l-1.43-40.63h-11.89l-1.33,40.63h-18.83l16.17-343.09h23.59Zm-26.44-107.89-3.71-121.89h-.38l-3.43,121.89Z"/><path class="cls-4" d="M1143.47,592.3h-16V867.22H1105V592.3h-16V524.13h54.41Z"/><path class="cls-4" d="M1192.27,867.22h-43.85V524.13h43.47v67.71h-21.21v61.85h18.07v69.07h-18.07V798.6h21.59Z"/><path class="cls-4" d="M1230.13,867.22c-.76-7.23-1.15-16.25-1.24-24.83l-.57-60.94c-.48-36.57-2.38-42.44-5.8-42.44h-1.34V867.22h-22.25V524.13h30c14.84,0,22.45,32.5,22.45,90.29,0,51.46-4.28,75.39-12.65,87.57v.91c8.56,4.51,11.32,30.24,11.32,74.93v24.83c0,30.7.67,45.6,2.28,64.56Zm-6.19-275.38h-2.76v78.1h2.48c3.8,0,5.8-6.32,5.8-42.88C1229.46,598.62,1227,591.84,1223.94,591.84Z"/><path class="cls-4" d="M1331.71,867.22h-7.32l-5.9-35.21c-2.57,19-7,40.62-16.36,40.62-14.27,0-22.35-33.85-22.35-100.66V616.67c0-68.61,11.22-98.41,26.44-98.41,13.51,0,24,27.09,24,90.29,0,20.31-.38,35.21-.85,46l-17.6-3.61c.38-8.12.67-17.15.67-31.6,0-22.57-1.43-34.76-5.43-34.76-3.33,0-4.85,9-4.85,24.83v177c0,14.45,1.71,21.67,4.38,21.67,2.47,0,4.37-9.48,4.37-21.67v-93.9h20.83Z"/><path class="cls-4" d="M1371.86,867.22c-.77-7.23-1.15-16.25-1.24-24.83l-.57-60.94c-.48-36.57-2.38-42.44-5.8-42.44h-1.34V867.22h-22.26V524.13h30.06c14.84,0,22.45,32.5,22.45,90.29,0,51.46-4.28,75.39-12.65,87.57v.91c8.56,4.51,11.32,30.24,11.32,74.93v24.83c0,30.7.67,45.6,2.28,64.56Zm-6.19-275.38h-2.76v78.1h2.48c3.8,0,5.8-6.32,5.8-42.88C1371.19,598.62,1368.72,591.84,1365.67,591.84Z"/><path class="cls-4" d="M1452.71,770.61c0,66.81-10.09,102-26.45,102-16.17,0-26.63-35.21-26.63-102V619.83c0-69.52,11.22-101.57,26.63-101.57,15.6,0,26.45,31.15,26.45,101.57Zm-22.45-165.67c0-13.1-1.71-20.32-4.09-20.32s-4.19,7.22-4.19,20.32V784.61c0,12.64,1.53,20.76,4.28,20.76,2.57,0,4-8.12,4-20.31Z"/><path class="cls-4" d="M1489.71,867.22h-29.2V524.13h29.39c14.84,0,22.83,31.15,22.83,90.74,0,48.3-4.66,68.16-11.89,75.84v1.35c7.23,6.32,13.32,31.15,13.32,78.55C1514.16,830.2,1506.74,867.22,1489.71,867.22ZM1486,592.3h-3.23v66.81H1486c3.33,0,5.71-5.87,5.71-33.86C1491.71,594.55,1489,592.3,1486,592.3Zm.29,132.72h-3.52V798.6h3.52c3.8,0,6-6.32,6-36.11C1492.28,733.59,1489.71,725,1486.29,725Z"/></g><path d="M454.9,474.38H439.41l-11.77-16.63H363.41l-11.65,16.63H336.28l46.19-64.62c2.95-4.09,7.68-7.16,13-7.16a16.25,16.25,0,0,1,13.06,7.16Zm-36.09-28.92-23.29-33.39-23.28,33.39Zm-23.54-47.85a17.28,17.28,0,1,1,17.27-17.28A17.21,17.21,0,0,1,395.27,397.61Zm8.19-9.09V372.14H387.08v16.38Z"/><path d="M561.11,474.38H548.82v-21.5H480.24v21.5H468V403.75h74a19.17,19.17,0,0,1,19.2,19.19v10.75a14.42,14.42,0,0,1-7.81,13.05,14.43,14.43,0,0,1,7.81,13.05ZM548.82,440.6V416H480.24V440.6Z"/><path d="M674.23,455.19A19.17,19.17,0,0,1,655,474.38h-74V462.1h80.87V445.21h-65A19.17,19.17,0,0,1,577.75,426v-3.07a19.16,19.16,0,0,1,19.19-19.19h74V416H590v16.89h65a19.18,19.18,0,0,1,19.2,19.2Z"/><path d="M703.15,474.38H690.87V403.75h12.28Zm82.92,0H759.32l-45.68-23.29a13.76,13.76,0,0,1,0-24.56l44.66-22.78h26.87l-69.1,35.06Z"/><path d="M886.52,455.19a19.17,19.17,0,0,1-19.2,19.19H812.56a19.17,19.17,0,0,1-19.2-19.19V422.94a19.17,19.17,0,0,1,19.2-19.19h54.76a19.17,19.17,0,0,1,19.2,19.19Zm-12.29,6.91V416H805.65V462.1Z"/><path d="M999.89,474.38H987.61v-21.5H919v21.5H906.74V403.75h74a19.16,19.16,0,0,1,19.19,19.19v10.75a14.43,14.43,0,0,1-7.8,13.05,14.44,14.44,0,0,1,7.8,13.05ZM987.61,440.6V416H919V440.6Z"/><path d="M1106.1,416h-39.92v58.35H1053.9V416H1014V403.75h92.13Z"/></g><g id="Layer_2" data-name="Layer 2"><circle class="cls-5" cx="743.97" cy="473.86" r="186.6"/><g class="cls-6"><path class="cls-7" d="M218.67,897.66H514.25l416-815.6h-288Z"/></g></g></svg>